<?xml version="1.0" encoding="UTF-8"?>
<svg id="Capa_2" data-name="Capa 2" xmlns="http://www.w3.org/2000/svg" viewBox="0 0 166.64 112.61">
  <defs>
    <style>
      .cls-1 {
        fill: #002021;
        stroke-width: 0px;
      }
    </style>
  </defs>
  <g id="Capa_1-2" data-name="Capa 1">
    <g>
      <path class="cls-1" d="M9.2,83.6c-.32.47-.48,1.02-.48,1.59v21.33H.03v5.61h9.94c.86,0,5.2-4.16,5.2-5.04v-21.12c0-.56.16-1.1.47-1.57l2.71-4.13h-6.68l-2.47,3.33Z"/>
      <path class="cls-1" d="M9.97,112.16H0v-5.68h8.69v-21.29c0-.57.17-1.13.49-1.6h0s2.48-3.35,2.48-3.35h6.75l-2.75,4.18c-.3.46-.46,1-.46,1.55v21.12c0,.5-1.23,1.86-2.28,2.88-1.13,1.09-2.48,2.2-2.95,2.2M.06,112.09h9.91c.87,0,5.16-4.17,5.16-5.01v-21.12c0-.57.16-1.11.47-1.59l2.68-4.08h-6.6l-2.46,3.32c-.31.47-.48,1.01-.48,1.57v21.36H.06v5.55Z"/>
      <path class="cls-1" d="M61.62,88.91c-3.34,0-5.77,1.29-7.09,3.57h-.15v-12.21h-6.3v25.64h-5.74v-16.54h-6.3v12.44c0,3.3-1.97,5.12-5.46,5.12s-5.08-1.63-5.08-4.93v-12.63h-6.3v13.84c0,5.77,3.49,9.33,9.82,9.33,4.21,0,6.64-1.44,8.46-4.13h1.59v3.72h12.27v-3.72h1.59c1.63,2.65,4.36,4.17,8.15,4.17,7.06,0,10.89-4.74,10.89-11.83s-3.83-11.83-10.35-11.83M59.91,107.12c-3.41,0-5.54-2.05-5.54-5.35v-2.05c0-3.3,2.12-5.35,5.54-5.35,3.83,0,5.76,2.43,5.76,6.37s-1.93,6.37-5.76,6.37"/>
      <path class="cls-1" d="M61.09,112.61c-3.66,0-6.49-1.44-8.17-4.17h-1.54v3.72h-12.33v-3.72h-1.54c-1.96,2.9-4.5,4.13-8.47,4.13-3.08,0-5.61-.87-7.31-2.51-1.67-1.61-2.55-3.98-2.55-6.85v-13.88h6.36v12.66c0,3.3,1.65,4.9,5.05,4.9,1.73,0,3.08-.44,4.02-1.31.94-.87,1.41-2.14,1.41-3.77v-12.47h6.36v16.54h5.68v-25.64h6.36v12.21h.1c1.37-2.33,3.83-3.57,7.11-3.57,6.41,0,10.39,4.55,10.39,11.87,0,3.56-.97,6.53-2.81,8.6-1.9,2.14-4.7,3.27-8.11,3.27M51.31,108.38h1.64v.02c.83,1.34,1.93,2.37,3.26,3.07,1.38.72,3.02,1.09,4.87,1.09,3.39,0,6.18-1.12,8.06-3.25,1.82-2.06,2.79-5.01,2.79-8.56,0-7.28-3.95-11.8-10.32-11.8-3.27,0-5.71,1.23-7.06,3.55v.02h-.21v-12.21h-6.23v25.64h-5.81v-16.54h-6.23v12.41c0,1.65-.48,2.93-1.43,3.82-.95.88-2.31,1.33-4.06,1.33s-3-.42-3.84-1.24c-.84-.82-1.27-2.07-1.27-3.73v-12.6h-6.23v13.81c0,2.85.87,5.2,2.53,6.8,1.69,1.63,4.2,2.49,7.27,2.49,3.96,0,6.48-1.23,8.43-4.12h.01s1.64-.01,1.64-.01v3.72h12.2v-3.72ZM59.91,107.15c-3.44,0-5.57-2.06-5.57-5.38v-2.05c0-3.32,2.14-5.38,5.57-5.38,1.89,0,3.35.58,4.34,1.72.96,1.1,1.45,2.68,1.45,4.69s-.49,3.58-1.45,4.69c-1,1.14-2.46,1.72-4.34,1.72M59.91,94.41c-3.4,0-5.51,2.04-5.51,5.32v2.05c0,3.28,2.11,5.32,5.51,5.32,1.87,0,3.31-.57,4.29-1.7.95-1.09,1.44-2.65,1.44-4.64s-.48-3.55-1.44-4.64c-.98-1.13-2.43-1.7-4.29-1.7"/>
      <path class="cls-1" d="M95.95,97.83c0-5.8-3.68-8.91-10.43-8.91-6.14,0-9.9,2.66-10.89,7.62h6.26c.57-1.82,1.97-2.66,4.63-2.66,2.88,0,4.4,1.21,4.4,3.68v.87h-6.52c-5.84,0-9.1,2.5-9.1,7.02s3.22,7.09,8.57,7.09c3.95,0,6.52-1.48,8.08-4.13h1.59v3.72h6.37v-6.22h-2.96v-8.08ZM89.92,102.95c0,2.69-2.58,4.82-6.11,4.82-2.2,0-3.53-.95-3.53-2.62s1.21-2.54,3.41-2.54h6.22v.34Z"/>
      <path class="cls-1" d="M82.86,112.58c-2.61,0-4.79-.67-6.31-1.95-1.5-1.26-2.29-3.05-2.29-5.18,0-2.26.8-4.01,2.37-5.23,1.57-1.21,3.84-1.82,6.76-1.82h6.49v-.84c0-2.42-1.47-3.65-4.37-3.65-2.61,0-4.03.81-4.6,2.63v.02h-6.33v-.04c1-5,4.78-7.65,10.92-7.65,3.37,0,5.99.77,7.77,2.29,1.79,1.52,2.69,3.76,2.69,6.66v8.05h2.96v6.29h-6.44v-3.72h-1.54c-1.64,2.78-4.28,4.13-8.1,4.13M83.39,98.47c-2.9,0-5.16.61-6.72,1.81-1.56,1.2-2.35,2.94-2.35,5.18,0,2.11.78,3.88,2.27,5.13,1.51,1.26,3.67,1.93,6.27,1.93,3.8,0,6.43-1.35,8.05-4.12v-.02h1.65v3.72h6.31v-6.16h-2.96v-8.11c0-2.87-.9-5.1-2.67-6.61-1.77-1.51-4.37-2.27-7.73-2.27-6.1,0-9.85,2.61-10.85,7.56h6.19c.58-1.84,2.02-2.66,4.65-2.66,2.94,0,4.43,1.25,4.43,3.71v.9h-6.56ZM83.81,107.8c-2.23,0-3.56-.99-3.56-2.65,0-.84.3-1.48.9-1.92.58-.43,1.44-.65,2.55-.65h6.25v.37c0,2.76-2.64,4.85-6.14,4.85M83.7,102.64c-2.21,0-3.38.87-3.38,2.51,0,.8.32,1.46.93,1.91.6.44,1.49.68,2.57.68,3.46,0,6.08-2.06,6.08-4.78v-.31h-6.19Z"/>
      <path class="cls-1" d="M140.74,89.37h-6.3v12.44c0,3.3-1.97,5.12-5.46,5.12s-5.08-1.63-5.08-4.93v-12.63h-6.3v13.84c0,5.77,3.49,9.33,9.82,9.33,4.21,0,6.64-1.44,8.46-4.13h1.59v3.72h6.37v-6.22h-3.11v-16.54Z"/>
      <path class="cls-1" d="M127.43,112.58c-3.08,0-5.61-.87-7.31-2.51-1.67-1.61-2.55-3.98-2.55-6.85v-13.88h6.36v12.66c0,3.3,1.65,4.9,5.05,4.9,1.73,0,3.08-.44,4.02-1.31.94-.87,1.41-2.14,1.41-3.77v-12.47h6.36v16.54h3.11v6.29h-6.44v-3.72h-1.54c-1.96,2.9-4.5,4.13-8.47,4.13M117.64,89.4v13.81c0,2.85.87,5.2,2.53,6.8,1.69,1.63,4.2,2.49,7.27,2.49,3.96,0,6.48-1.23,8.43-4.12h.01s1.64-.01,1.64-.01v3.72h6.31v-6.16h-3.11v-16.54h-6.23v12.41c0,1.65-.48,2.93-1.43,3.82-.95.88-2.31,1.33-4.06,1.33s-3-.42-3.84-1.24c-.84-.82-1.27-2.07-1.27-3.73v-12.6h-6.23Z"/>
      <path class="cls-1" d="M159.71,98.47l-5.2-.99c-1.59-.3-2.31-.91-2.31-1.93,0-1.33,1.29-2.05,3.56-2.05,2.66,0,4.02.95,4.55,3.03h6.07c-.38-4.82-4.13-7.62-10.24-7.62s-9.86,2.81-9.86,7.17c0,3.41,2.28,5.54,6.83,6.41l5.08.99c1.78.34,2.54.99,2.54,2.16,0,1.48-1.25,2.16-3.91,2.16-3.19,0-4.82-1.02-5.23-3.22h-6.07c.3,5.04,4.32,8,11.04,8s10.05-2.77,10.05-7.47c0-3.6-2.16-5.73-6.9-6.64"/>
      <path class="cls-1" d="M156.56,112.61c-3.29,0-6.04-.73-7.94-2.12-1.9-1.38-2.98-3.43-3.13-5.92v-.03s6.13,0,6.13,0v.03c.21,1.1.73,1.89,1.57,2.42.85.53,2.04.78,3.64.78,2.64,0,3.88-.68,3.88-2.13,0-1.16-.75-1.79-2.52-2.13l-5.08-.99c-2.27-.44-4-1.2-5.14-2.26-1.14-1.07-1.72-2.48-1.72-4.18,0-4.44,3.79-7.2,9.89-7.2,3,0,5.52.7,7.29,2.01,1.77,1.32,2.8,3.27,2.99,5.64v.04s-6.13,0-6.13,0v-.02c-.27-1.05-.75-1.8-1.47-2.28-.73-.49-1.73-.73-3.06-.73-2.28,0-3.53.72-3.53,2.02,0,1.01.71,1.6,2.29,1.9l5.2.99c4.73.91,6.93,3.03,6.93,6.67,0,4.77-3.68,7.5-10.08,7.5M145.56,104.61c.16,2.46,1.23,4.47,3.1,5.83,1.89,1.38,4.62,2.1,7.9,2.1,6.37,0,10.02-2.71,10.02-7.44,0-3.61-2.19-5.71-6.88-6.61l-5.2-.99c-1.6-.3-2.34-.93-2.34-1.97,0-1.34,1.28-2.08,3.6-2.08,2.62,0,4.03.94,4.58,3.03h6.01c-.19-2.34-1.21-4.26-2.96-5.56-1.76-1.31-4.26-2-7.25-2-6.06,0-9.83,2.73-9.83,7.14,0,1.69.57,3.08,1.7,4.13,1.13,1.06,2.84,1.81,5.1,2.24l5.08.99c1.8.34,2.57,1,2.57,2.19,0,1.5-1.25,2.19-3.94,2.19-3.16,0-4.83-1.02-5.26-3.22h-6.01Z"/>
      <path class="cls-1" d="M109.11,94.3h5.2v-4.93h-5.27v-6.83h-6.14v6.83h-3.98v4.93h3.91v12.82c0,.96,4.09,5.01,5.12,5.01h6.9v-4.93h-5.73v-12.9Z"/>
      <path class="cls-1" d="M114.87,112.16h-6.94c-.58,0-1.96-1.16-2.97-2.15-1.09-1.07-2.18-2.37-2.18-2.89v-12.79h-3.91v-5h3.98v-6.83h6.21v6.83h5.27v5h-5.2v12.83h5.73v5ZM98.94,94.27h3.91v12.85c0,.49,1.12,1.82,2.16,2.84,1.08,1.06,2.4,2.13,2.92,2.13h6.87v-4.87h-5.73v-12.96h5.2v-4.87h-5.27v-6.83h-6.08v6.83h-3.98v4.87Z"/>
      <path class="cls-1" d="M100.28,39.82h-.02s.03,15.84.03,15.84l-11.06-8.23,4.21-2.55c.39-.23.62-.66.62-1.11v-8.55l14.23-6.73h.02v-6.93l-5.33,2.61h0s-2.82,4.51-2.82,4.51l-1.89.84.7-3.65-11.21,5.16h-.02v9.92l-3.89,2.42-.07-.05-.37.28-4.25-2.64v-9.91l-11.43-5.26.58,3.62-1.82-.69-2.75-4.8h0s-5.15-2.35-5.15-2.35v6.92l14.25,6.74v8.55c0,.45.24.88.62,1.11l4.59,2.78-11.31,8.43.04-15.99v-.02s-15.87-7.36-15.87-7.36l2.23,6.59.08,18.17v.02s12.94,6.47,12.94,6.47l17.49-13.01,17.21,12.87h.02s12.53-6.33,12.53-6.33h.02s.08-18.45.08-18.45l2.23-6.59-15.46,7.36Z"/>
      <polygon class="cls-1" points="66.46 17.26 65.71 12.58 83.43 20.67 83.44 20.67 100.98 12.54 100.21 17.26 113.5 23.2 113.5 .18 93.99 9.5 83.46 6.52 83.45 6.52 72.91 9.28 53.39 0 53.39 23.21 66.44 17.27 66.46 17.26"/>
    </g>
  </g>
</svg>